# xmcd
#
# Track frame offsets: 
#        150
#        10088
#        27863
#        41213
#        51938
#        62738
#        82613
#        101138
#        117151
#        129189
#        138564
#        155064
#
# Disc length: 2196 seconds
#
# Revision: 1
# Processed by: cddbd v1.5.2PL0 Copyright (c) Steve Scherf et al.
# Submitted via: ExactAudioCopyFreeDBPlugin 1.0
#
DISCID=9908920c
DTITLE=Jerry Miller - New Road Under My Wheels
DYEAR=2013
DGENRE=Country
TTITLE0=Travis Express
TTITLE1=I've Got A New Road Under My Wheels
TTITLE2=Detour
TTITLE3=Round 'Em Up
TTITLE4=Eight More Miles To Louisville
TTITLE5=What A Little Moonlight Can Do
TTITLE6=Steuben Street Blues
TTITLE7=Moon Fallin'
TTITLE8=Brother Drop Dead
TTITLE9=Poor Ellen Smith
TTITLE10=Slaughter On Roosevelt Boulevard
TTITLE11=The End Of The Line
EXTD=
EXTT0=
EXTT1=
EXTT2=
EXTT3=
EXTT4=
EXTT5=
EXTT6=
EXTT7=
EXTT8=
EXTT9=
EXTT10=
EXTT11=
PLAYORDER=
